<?xml version="1.0" encoding="utf-8"?>
<!-- Generator: Adobe Illustrator 15.0.0, SVG Export Plug-In . SVG Version: 6.00 Build 0)  -->
<!DOCTYPE svg PUBLIC "-//W3C//DTD SVG 1.1//EN" "http://www.w3.org/Graphics/SVG/1.1/DTD/svg11.dtd">
<svg version="1.1" id="Capa_1" xmlns="http://www.w3.org/2000/svg" xmlns:xlink="http://www.w3.org/1999/xlink" x="0px" y="0px"
	 width="398.567px" height="126.756px" viewBox="0 0 398.567 126.756" enable-background="new 0 0 398.567 126.756"
	 xml:space="preserve">
<g id="Capa_1_1_">
</g>
<g id="Capa_2">
	<g>
		<polygon fill="#FFFFFF" points="40.092,0 40.092,13.396 57.495,13.396 57.495,0.031 		"/>
		<rect x="40.092" y="20.838" fill="#FFFFFF" width="17.403" height="58.925"/>
		<path fill="#FFFFFF" d="M106.916,43.593l15.625-1.75c0,0-1.875-22.875-25.75-22.875s-29.5,20.039-29.5,31.332
			s5.875,31.543,29.375,31.543s25.875-22.5,25.875-22.5l-15.5-2.125c0,0,0.5,12.25-9.875,12.25S86.041,57.257,86.041,50.3
			c0-6.957,1.875-19.707,10.875-19.707C104.916,30.593,106.916,43.593,106.916,43.593z"/>
		<path fill="#FFFFFF" d="M234.666,43.732l15.625-1.75c0,0-1.875-22.875-25.75-22.875s-29.5,20.039-29.5,31.332
			s5.875,31.543,29.375,31.543s25.875-22.5,25.875-22.5l-15.5-2.125c0,0,0.5,12.25-9.875,12.25s-11.125-12.211-11.125-19.168
			s1.875-19.707,10.875-19.707C232.666,30.732,234.666,43.732,234.666,43.732z"/>
		<path fill="#FFFFFF" d="M171.25,60.664c0,0-1.487,8.839-11.234,8.839s-12.969-6.856-12.969-15.86h41.369
			c0-20.155-7.006-34.528-29.805-34.528c-22.799,0-30.646,20.074-30.646,31.473s5.7,31.389,30.977,31.389
			c25.277,0,29.489-19.824,29.489-19.824L171.25,60.664z M158.778,30.593c12.308,0,11.729,12.972,11.729,12.972h-23.46
			C147.047,43.565,147.296,30.593,158.778,30.593z"/>
		<path fill="#FFFFFF" d="M312.749,69.594l0.083-25.75c0-12.666-1.416-24.834-26.833-24.834s-28.75,17.417-28.75,17.417
			l16.417,2.333c0,0-0.584-8.583,12.166-8.583s9.917,11.583,9.917,11.583c-34.833,0-40.25,13-40.25,22.25
			s6.917,17.917,21.167,17.917s19.583-11.083,19.583-11.083c0,8.25,1.333,9,1.333,9l17-0.25
			C312.748,78.594,312.749,69.594,312.749,69.594z M283.249,70.427c-10.083,0-9.5-7.667-9.5-7.667c0-4.583,4.416-11.75,22.083-11.75
			C295.832,51.01,298.416,70.427,283.249,70.427z"/>
		<path fill="#FFFFFF" d="M345.749,2.76l-16.166,1.417l-1.25,16.75h-10v11.167h10.083l0.083,28.874c0,0-3.667,20.792,19.25,20.792
			c8.043,0,11.334-1.083,11.334-1.083V67.76c0,0-13.5,5-13.5-7V32.177h12.416V20.76h-12.166L345.749,2.76z"/>
		<path fill="#FFFFFF" d="M0,101.26c0,0,87.333-12.667,208.833-12.667c104.619,0,189.734,12.667,189.734,12.667
			S316.834,84.593,209,84.593C73.832,84.593,0,101.26,0,101.26z"/>
		<g>
			<path fill="#FFFFFF" d="M93.282,98.843v5.554h3.604v1.607h-3.604v9.369c0,0.876,0.041,1.442,0.122,1.696
				c0.081,0.255,0.225,0.46,0.43,0.617c0.206,0.157,0.396,0.235,0.568,0.235c0.704,0,1.369-0.536,1.997-1.607l0.487,0.357
				c-0.877,2.078-2.3,3.117-4.271,3.117c-0.963,0-1.777-0.268-2.443-0.804c-0.666-0.536-1.091-1.134-1.274-1.794
				c-0.108-0.368-0.163-1.364-0.163-2.988v-8.199h-1.98v-0.568c1.364-0.964,2.524-1.976,3.482-3.037s1.795-2.246,2.509-3.556h0.536
				V98.843z"/>
			<path fill="#FFFFFF" d="M104.535,97.56v8.785c0.833-0.877,1.597-1.496,2.289-1.859c0.693-0.362,1.413-0.544,2.16-0.544
				c0.952,0,1.767,0.271,2.443,0.812c0.677,0.542,1.126,1.178,1.348,1.908c0.222,0.73,0.333,1.962,0.333,3.694v5.927
				c0,1.158,0.108,1.881,0.325,2.167c0.216,0.287,0.654,0.469,1.314,0.544v0.585h-7.696v-0.585c0.541-0.075,0.947-0.292,1.218-0.649
				c0.195-0.281,0.292-0.969,0.292-2.063v-6.771c0-1.256-0.048-2.043-0.146-2.362c-0.098-0.319-0.263-0.568-0.495-0.747
				c-0.233-0.179-0.495-0.268-0.788-0.268c-0.433,0-0.855,0.147-1.267,0.446c-0.412,0.298-0.854,0.82-1.331,1.566v8.136
				c0,1.082,0.081,1.759,0.243,2.029c0.206,0.368,0.628,0.596,1.267,0.682v0.585h-7.696v-0.585c0.639-0.064,1.093-0.271,1.364-0.616
				c0.184-0.238,0.275-0.937,0.275-2.095v-15.426c0-1.147-0.105-1.862-0.316-2.144c-0.211-0.282-0.652-0.465-1.323-0.552v-0.602
				L104.535,97.56L104.535,97.56z"/>
			<path fill="#FFFFFF" d="M129.686,111.444h-8.33c0.098,2.014,0.634,3.604,1.607,4.773c0.747,0.898,1.646,1.348,2.695,1.348
				c0.65,0,1.24-0.181,1.771-0.544c0.53-0.362,1.099-1.015,1.705-1.956l0.552,0.356c-0.822,1.679-1.732,2.866-2.728,3.564
				c-0.996,0.698-2.149,1.048-3.459,1.048c-2.252,0-3.957-0.866-5.115-2.599c-0.931-1.396-1.396-3.128-1.396-5.196
				c0-2.532,0.684-4.549,2.054-6.048c1.369-1.499,2.974-2.249,4.814-2.249c1.537,0,2.871,0.631,4.002,1.892
				C128.991,107.095,129.599,108.965,129.686,111.444z M125.692,110.356c0-1.743-0.095-2.939-0.284-3.589
				c-0.189-0.65-0.484-1.142-0.885-1.478c-0.228-0.194-0.531-0.292-0.91-0.292c-0.563,0-1.022,0.275-1.38,0.828
				c-0.639,0.963-0.958,2.284-0.958,3.962v0.568L125.692,110.356L125.692,110.356z"/>
			<path fill="#FFFFFF" d="M147.06,103.942c1.32,0,2.549,0.341,3.686,1.023c1.137,0.682,2,1.65,2.59,2.906
				c0.59,1.256,0.885,2.63,0.885,4.124c0,2.154-0.546,3.957-1.64,5.407c-1.32,1.754-3.145,2.631-5.472,2.631
				c-2.284,0-4.043-0.802-5.277-2.403c-1.234-1.603-1.852-3.459-1.852-5.569c0-2.176,0.631-4.073,1.892-5.691
				C143.133,104.752,144.862,103.942,147.06,103.942z M147.124,105.095c-0.552,0-1.025,0.208-1.42,0.625
				c-0.396,0.417-0.655,1.239-0.78,2.468c-0.124,1.229-0.187,2.937-0.187,5.123c0,1.158,0.076,2.24,0.228,3.247
				c0.119,0.77,0.373,1.354,0.763,1.754c0.391,0.4,0.834,0.601,1.332,0.601c0.487,0,0.893-0.135,1.218-0.405
				c0.422-0.368,0.703-0.883,0.845-1.543c0.216-1.028,0.324-3.106,0.324-6.235c0-1.84-0.103-3.104-0.309-3.791
				s-0.509-1.188-0.909-1.502C147.948,105.209,147.579,105.095,147.124,105.095z"/>
			<path fill="#FFFFFF" d="M162.405,118.036v5.651c0,0.779,0.063,1.31,0.188,1.591c0.124,0.281,0.316,0.487,0.576,0.617
				c0.26,0.13,0.769,0.195,1.526,0.195v0.601h-8.655v-0.601c0.672-0.022,1.17-0.212,1.494-0.568c0.217-0.25,0.325-0.894,0.325-1.933
				v-16.026c0-1.072-0.125-1.756-0.374-2.054c-0.249-0.298-0.73-0.469-1.445-0.512v-0.601h6.365v1.997
				c0.53-0.779,1.072-1.343,1.624-1.689c0.79-0.508,1.65-0.763,2.582-0.763c1.114,0,2.13,0.352,3.044,1.056
				c0.915,0.703,1.61,1.675,2.087,2.914c0.477,1.24,0.715,2.574,0.715,4.003c0,1.537-0.247,2.941-0.739,4.214
				c-0.492,1.271-1.207,2.24-2.144,2.906s-1.979,0.999-3.125,0.999c-0.834,0-1.613-0.185-2.339-0.553
				C163.569,119.2,163,118.718,162.405,118.036z M162.405,116.396c0.932,1.321,1.927,1.981,2.988,1.981
				c0.584,0,1.065-0.309,1.445-0.926c0.563-0.909,0.844-2.642,0.844-5.196c0-2.619-0.309-4.411-0.926-5.374
				c-0.411-0.639-0.963-0.958-1.656-0.958c-1.093,0-1.991,0.79-2.695,2.37V116.396z"/>
			<path fill="#FFFFFF" d="M187.881,111.444h-8.33c0.098,2.014,0.634,3.604,1.607,4.773c0.747,0.898,1.646,1.348,2.695,1.348
				c0.65,0,1.24-0.181,1.771-0.544c0.53-0.362,1.099-1.015,1.705-1.956l0.552,0.356c-0.822,1.679-1.732,2.866-2.728,3.564
				c-0.996,0.698-2.149,1.048-3.459,1.048c-2.252,0-3.957-0.866-5.115-2.599c-0.931-1.396-1.396-3.128-1.396-5.196
				c0-2.532,0.684-4.549,2.054-6.048c1.369-1.499,2.974-2.249,4.814-2.249c1.537,0,2.871,0.631,4.002,1.892
				C187.186,107.095,187.794,108.965,187.881,111.444z M183.887,110.356c0-1.743-0.095-2.939-0.284-3.589
				c-0.189-0.65-0.484-1.142-0.885-1.478c-0.228-0.194-0.531-0.292-0.91-0.292c-0.563,0-1.022,0.275-1.38,0.828
				c-0.639,0.963-0.958,2.284-0.958,3.962v0.568L183.887,110.356L183.887,110.356z"/>
			<path fill="#FFFFFF" d="M195.984,104.397v1.964c0.779-0.844,1.526-1.458,2.24-1.843c0.715-0.384,1.483-0.576,2.306-0.576
				c0.985,0,1.803,0.273,2.452,0.82c0.649,0.547,1.083,1.226,1.299,2.037c0.174,0.617,0.26,1.803,0.26,3.557v5.91
				c0,1.169,0.105,1.897,0.317,2.184c0.211,0.287,0.651,0.469,1.323,0.544v0.585H198.5v-0.585c0.574-0.075,0.985-0.313,1.234-0.714
				c0.173-0.271,0.26-0.942,0.26-2.014v-6.755c0-1.244-0.049-2.029-0.146-2.354c-0.098-0.324-0.263-0.576-0.495-0.755
				c-0.232-0.179-0.49-0.268-0.771-0.268c-0.931,0-1.797,0.665-2.598,1.997v8.135c0,1.137,0.104,1.856,0.316,2.159
				c0.211,0.304,0.604,0.493,1.178,0.568v0.585h-7.681v-0.585c0.639-0.063,1.093-0.271,1.364-0.616
				c0.184-0.238,0.275-0.942,0.275-2.111v-8.573c0-1.147-0.105-1.862-0.316-2.144c-0.211-0.282-0.652-0.465-1.323-0.552v-0.601
				L195.984,104.397L195.984,104.397z"/>
			<path fill="#FFFFFF" d="M228.979,115.666l0.503,0.39c-0.714,1.342-1.604,2.341-2.671,2.996c-1.066,0.654-2.2,0.981-3.401,0.981
				c-2.024,0-3.644-0.764-4.855-2.29c-1.211-1.525-1.818-3.361-1.818-5.505c0-2.067,0.552-3.886,1.656-5.455
				c1.331-1.895,3.166-2.842,5.505-2.842c1.569,0,2.816,0.396,3.742,1.186c0.926,0.79,1.389,1.672,1.389,2.646
				c0,0.617-0.187,1.109-0.561,1.478c-0.373,0.368-0.863,0.552-1.47,0.552c-0.639,0-1.166-0.211-1.583-0.633
				c-0.417-0.422-0.674-1.175-0.771-2.257c-0.064-0.683-0.222-1.158-0.471-1.429s-0.541-0.406-0.877-0.406
				c-0.52,0-0.963,0.276-1.331,0.828c-0.563,0.834-0.845,2.11-0.845,3.832c0,1.429,0.228,2.796,0.683,4.1
				c0.454,1.305,1.076,2.276,1.867,2.915c0.595,0.466,1.299,0.698,2.11,0.698c0.53,0,1.034-0.124,1.511-0.374
				C227.766,116.83,228.329,116.358,228.979,115.666z"/>
			<path fill="#FFFFFF" d="M239.728,117.337c-1.852,1.635-3.513,2.452-4.985,2.452c-0.866,0-1.586-0.284-2.159-0.853
				c-0.574-0.568-0.86-1.279-0.86-2.135c0-1.158,0.497-2.2,1.493-3.126c0.996-0.926,3.167-2.157,6.512-3.694v-1.526
				c0-1.146-0.063-1.869-0.187-2.167c-0.125-0.298-0.36-0.558-0.707-0.779c-0.346-0.223-0.736-0.333-1.169-0.333
				c-0.703,0-1.282,0.156-1.737,0.471c-0.281,0.194-0.422,0.422-0.422,0.682c0,0.228,0.151,0.509,0.454,0.845
				c0.412,0.466,0.617,0.915,0.617,1.348c0,0.53-0.197,0.982-0.593,1.355c-0.395,0.374-0.912,0.561-1.551,0.561
				c-0.682,0-1.253-0.206-1.713-0.617s-0.689-0.893-0.689-1.445c0-0.779,0.309-1.523,0.925-2.232
				c0.617-0.709,1.478-1.253,2.582-1.632c1.104-0.379,2.252-0.568,3.442-0.568c1.439,0,2.579,0.306,3.418,0.917
				c0.839,0.612,1.383,1.275,1.632,1.989c0.151,0.455,0.228,1.5,0.228,3.134v5.895c0,0.693,0.026,1.129,0.081,1.307
				c0.054,0.179,0.136,0.312,0.243,0.398c0.108,0.087,0.233,0.13,0.374,0.13c0.281,0,0.568-0.2,0.86-0.601l0.487,0.39
				c-0.541,0.801-1.102,1.383-1.681,1.745s-1.236,0.544-1.973,0.544c-0.866,0-1.543-0.203-2.03-0.608
				C240.134,118.775,239.836,118.161,239.728,117.337z M239.728,116.153v-5.083c-1.31,0.77-2.284,1.592-2.923,2.469
				c-0.422,0.584-0.633,1.175-0.633,1.77c0,0.498,0.178,0.937,0.535,1.315c0.271,0.292,0.649,0.438,1.137,0.438
				C238.385,117.062,239.013,116.759,239.728,116.153z"/>
			<path fill="#FFFFFF" d="M254,98.843v5.554h3.604v1.607H254v9.369c0,0.876,0.041,1.442,0.122,1.696
				c0.081,0.255,0.225,0.46,0.43,0.617c0.206,0.157,0.396,0.235,0.568,0.235c0.704,0,1.369-0.536,1.997-1.607l0.487,0.357
				c-0.877,2.078-2.3,3.117-4.271,3.117c-0.963,0-1.777-0.268-2.443-0.804s-1.091-1.134-1.274-1.794
				c-0.108-0.368-0.163-1.364-0.163-2.988v-8.199h-1.98v-0.568c1.364-0.964,2.524-1.976,3.482-3.037s1.795-2.246,2.509-3.556H254
				V98.843z"/>
			<path fill="#FFFFFF" d="M267.429,117.337c-1.852,1.635-3.513,2.452-4.985,2.452c-0.866,0-1.586-0.284-2.159-0.853
				c-0.574-0.568-0.86-1.279-0.86-2.135c0-1.158,0.497-2.2,1.493-3.126c0.996-0.926,3.167-2.157,6.512-3.694v-1.526
				c0-1.146-0.063-1.869-0.187-2.167c-0.125-0.298-0.36-0.558-0.707-0.779c-0.346-0.223-0.736-0.333-1.169-0.333
				c-0.703,0-1.282,0.156-1.737,0.471c-0.281,0.194-0.422,0.422-0.422,0.682c0,0.228,0.151,0.509,0.454,0.845
				c0.412,0.466,0.617,0.915,0.617,1.348c0,0.53-0.197,0.982-0.593,1.355c-0.395,0.374-0.912,0.561-1.551,0.561
				c-0.682,0-1.253-0.206-1.713-0.617c-0.46-0.411-0.689-0.893-0.689-1.445c0-0.779,0.309-1.523,0.925-2.232
				c0.617-0.709,1.478-1.253,2.582-1.632c1.104-0.379,2.252-0.568,3.442-0.568c1.439,0,2.579,0.306,3.418,0.917
				c0.839,0.612,1.383,1.275,1.632,1.989c0.151,0.455,0.228,1.5,0.228,3.134v5.895c0,0.693,0.026,1.129,0.081,1.307
				c0.054,0.179,0.136,0.312,0.243,0.398c0.108,0.087,0.233,0.13,0.374,0.13c0.281,0,0.568-0.2,0.86-0.601l0.487,0.39
				c-0.541,0.801-1.102,1.383-1.681,1.745s-1.236,0.544-1.973,0.544c-0.866,0-1.543-0.203-2.03-0.608
				C267.835,118.775,267.537,118.161,267.429,117.337z M267.429,116.153v-5.083c-1.31,0.77-2.284,1.592-2.923,2.469
				c-0.422,0.584-0.633,1.175-0.633,1.77c0,0.498,0.178,0.937,0.535,1.315c0.271,0.292,0.649,0.438,1.137,0.438
				C266.086,117.062,266.714,116.759,267.429,116.153z"/>
			<path fill="#FFFFFF" d="M281.62,97.56v18.868c0,1.072,0.124,1.757,0.373,2.055s0.736,0.468,1.462,0.511v0.585h-8.2v-0.585
				c0.671-0.021,1.169-0.216,1.494-0.584c0.216-0.249,0.324-0.909,0.324-1.98v-15.718c0-1.061-0.124-1.74-0.373-2.038
				c-0.249-0.297-0.73-0.468-1.445-0.511V97.56H281.62z"/>
			<path fill="#FFFFFF" d="M292.078,103.942c1.32,0,2.549,0.341,3.686,1.023c1.138,0.682,2,1.65,2.591,2.906
				c0.59,1.256,0.885,2.63,0.885,4.124c0,2.154-0.546,3.957-1.641,5.407c-1.319,1.754-3.145,2.631-5.472,2.631
				c-2.284,0-4.043-0.802-5.276-2.403c-1.234-1.603-1.853-3.459-1.853-5.569c0-2.176,0.631-4.073,1.892-5.691
				C288.151,104.752,289.879,103.942,292.078,103.942z M292.143,105.095c-0.553,0-1.025,0.208-1.421,0.625s-0.654,1.239-0.779,2.468
				c-0.124,1.229-0.188,2.937-0.188,5.123c0,1.158,0.076,2.24,0.229,3.247c0.119,0.77,0.373,1.354,0.763,1.754
				c0.391,0.4,0.834,0.601,1.332,0.601c0.487,0,0.893-0.135,1.218-0.405c0.422-0.368,0.703-0.883,0.845-1.543
				c0.217-1.028,0.324-3.106,0.324-6.235c0-1.84-0.103-3.104-0.309-3.791s-0.509-1.188-0.909-1.502
				C292.965,105.209,292.597,105.095,292.143,105.095z"/>
			<path fill="#FFFFFF" d="M311.286,104.575h5.114v1.786h-2.906c0.53,0.531,0.898,1.013,1.104,1.445
				c0.26,0.585,0.39,1.196,0.39,1.835c0,1.083-0.301,2.021-0.901,2.817c-0.6,0.796-1.418,1.418-2.452,1.867
				c-1.033,0.449-1.95,0.674-2.752,0.674c-0.064,0-0.715-0.026-1.947-0.081c-0.487,0-0.896,0.16-1.228,0.479
				c-0.33,0.32-0.495,0.701-0.495,1.146c0,0.39,0.148,0.709,0.446,0.958s0.782,0.373,1.453,0.373l2.81-0.032
				c2.273,0,3.837,0.249,4.692,0.747c1.224,0.692,1.835,1.759,1.835,3.198c0,0.92-0.281,1.757-0.845,2.509
				c-0.563,0.753-1.305,1.308-2.225,1.664c-1.396,0.53-3.005,0.796-4.822,0.796c-1.363,0-2.608-0.133-3.734-0.397
				c-1.126-0.266-1.934-0.634-2.419-1.104c-0.487-0.471-0.731-0.966-0.731-1.485c0-0.498,0.188-0.944,0.562-1.34
				c0.373-0.396,1.067-0.729,2.087-0.998c-1.408-0.693-2.111-1.656-2.111-2.891c0-0.747,0.287-1.473,0.86-2.176
				c0.574-0.704,1.482-1.315,2.729-1.835c-1.45-0.53-2.501-1.229-3.149-2.095c-0.649-0.866-0.976-1.867-0.976-3.004
				c0-1.483,0.606-2.769,1.819-3.856c1.212-1.088,2.771-1.632,4.676-1.632C309.175,103.942,310.214,104.153,311.286,104.575z
				 M307.52,121.82c-1.104,0-1.835,0.092-2.192,0.275c-0.616,0.336-0.925,0.79-0.925,1.364c0,0.552,0.317,1.053,0.958,1.502
				c0.639,0.449,1.84,0.674,3.604,0.674c1.505,0,2.688-0.2,3.548-0.601c0.86-0.401,1.291-0.964,1.291-1.688
				c0-0.271-0.081-0.498-0.243-0.683c-0.292-0.324-0.733-0.547-1.323-0.666C311.646,121.878,310.074,121.82,307.52,121.82z
				 M308.478,104.949c-0.628,0-1.158,0.316-1.592,0.95c-0.434,0.633-0.648,1.945-0.648,3.938c0,1.612,0.213,2.72,0.641,3.32
				c0.428,0.6,0.935,0.901,1.52,0.901c0.648,0,1.189-0.298,1.624-0.894c0.433-0.595,0.648-1.753,0.648-3.475
				c0-1.938-0.244-3.258-0.729-3.962C309.592,105.209,309.105,104.949,308.478,104.949z"/>
		</g>
	</g>
</g>
</svg>
