<?xml version="1.0" encoding="utf-8"?>
<!-- Generator: Adobe Illustrator 15.0.0, SVG Export Plug-In  -->
<!DOCTYPE svg PUBLIC "-//W3C//DTD SVG 1.1//EN" "http://www.w3.org/Graphics/SVG/1.1/DTD/svg11.dtd" [
	<!ENTITY ns_flows "http://ns.adobe.com/Flows/1.0/">
]>
<svg version="1.1"
	 xmlns="http://www.w3.org/2000/svg" xmlns:xlink="http://www.w3.org/1999/xlink" xmlns:a="http://ns.adobe.com/AdobeSVGViewerExtensions/3.0/"
	 x="0px" y="0px" width="77px" height="26px" viewBox="0 0 77 26" enable-background="new 0 0 77 26" xml:space="preserve">
<defs>
</defs>
<path fill="#D1D3D4" d="M75.126,6.249c-1.014-1.869-2.423-3.316-4.228-4.342c-1.805-1.025-3.838-1.538-6.1-1.538h-8.244v4.387
	c-0.506-1.016-1.171-1.875-2.008-2.568C52.783,0.729,50.307,0,47.12,0c-2.18,0-4.099,0.507-5.757,1.521s-2.933,2.461-3.823,4.342
	s-1.336,4.081-1.336,6.601l0.013,1.633L31.145,0.369h-5.801l-5.789,15.783c-0.656-1.433-1.827-2.641-3.524-3.619
	c-1.137-0.656-2.59-1.269-4.359-1.837c-1.77-0.568-3.006-1.119-3.709-1.652S6.908,7.916,6.908,7.26c0-0.75,0.319-1.368,0.958-1.854
	c0.639-0.486,1.509-0.729,2.61-0.729c1.09,0,1.954,0.287,2.593,0.861c0.639,0.574,0.958,1.383,0.958,2.426h6.152
	c0-1.559-0.404-2.944-1.213-4.157s-1.942-2.147-3.401-2.804s-3.109-0.984-4.948-0.984c-1.887,0-3.586,0.302-5.098,0.905
	S2.839,2.37,2.013,3.454S0.773,5.789,0.773,7.207c0,2.848,1.658,5.086,4.975,6.715c1.02,0.504,2.332,1.025,3.938,1.564
	c1.605,0.539,2.727,1.061,3.366,1.564c0.639,0.504,0.958,1.207,0.958,2.109c0,0.797-0.296,1.415-0.888,1.854
	c-0.592,0.439-1.397,0.659-2.417,0.659c-1.594,0-2.745-0.325-3.454-0.976c-0.709-0.65-1.063-1.661-1.063-3.032H0
	c0,1.688,0.425,3.179,1.274,4.474s2.115,2.314,3.797,3.059c1.681,0.744,3.56,1.116,5.634,1.116c2.183,0,4.019-0.354,5.511-1.057
	l-0.259,0.706h6.592l1.477-4.781h8.455l1.494,4.781h6.626l-0.926-2.506c1.978,1.898,4.572,2.858,7.796,2.858
	c2.18,0,4.184-0.322,6.012-0.967c1.228-0.433,2.24-0.967,3.072-1.585v2.2h8.42c2.215-0.012,4.221-0.542,6.021-1.591
	c1.798-1.049,3.193-2.502,4.184-4.359c0.99-1.857,1.485-3.958,1.485-6.302v-1.178C76.652,10.213,76.14,8.118,75.126,6.249z
	 M25.502,16.418l2.742-8.877l2.76,8.877H25.502z M47.19,12.287v4.236h4.289v3.973c-0.786,0.715-1.98,1.072-3.586,1.072
	c-1.875,0-3.25-0.642-4.122-1.925c-0.873-1.283-1.31-3.202-1.31-5.757V12.34c0.011-2.438,0.439-4.313,1.283-5.625
	s2.039-1.969,3.586-1.969c1.289,0,2.285,0.305,2.988,0.914s1.16,1.629,1.371,3.059h4.865v3.568H47.19z M70.372,13.711
	c0,2.484-0.475,4.356-1.424,5.616s-2.309,1.89-4.078,1.89h-2.145V5.133h2.074c1.816,0,3.199,0.627,4.148,1.881
	s1.424,3.117,1.424,5.59V13.711z"/>
</svg>
